<?xml version="1.0" encoding="UTF-8"?>
<!DOCTYPE svg PUBLIC "-//W3C//DTD SVG 1.1//EN" "http://www.w3.org/Graphics/SVG/1.1/DTD/svg11.dtd">
<!-- Creator: CorelDRAW -->
<svg xmlns="http://www.w3.org/2000/svg" xml:space="preserve" width="913px" height="231px" version="1.1" style="shape-rendering:geometricPrecision; text-rendering:geometricPrecision; image-rendering:optimizeQuality; fill-rule:evenodd; clip-rule:evenodd"
viewBox="0 0 911.32 231.02"
 xmlns:xlink="http://www.w3.org/1999/xlink"
 xmlns:xodm="http://www.corel.com/coreldraw/odm/2003">
 <defs>
  <style type="text/css">
   <![CDATA[
    .fil0 {fill:#FEFEFE;fill-rule:nonzero}
   ]]>
  </style>
 </defs>
 <g id="Layer_x0020_1">
  <metadata id="CorelCorpID_0Corel-Layer"/>
  <g id="_3126653930672">
   <path class="fil0" d="M788.02 230.78l0 -23.85 38.7 18.05 0 -17.91 3.88 0 0 23.88c-0.2,-0.09 -0.48,-0.22 -0.83,-0.39 -0.36,-0.17 -0.9,-0.42 -1.63,-0.77 -0.72,-0.34 -1.71,-0.8 -2.97,-1.4 -1.25,-0.59 -2.81,-1.32 -4.69,-2.2 -1.88,-0.87 -4.16,-1.94 -6.85,-3.19 -2.69,-1.25 -5.82,-2.71 -9.39,-4.38 -3.58,-1.67 -7.69,-3.59 -12.33,-5.75l0 17.91 -3.89 0zm-62.14 -3.55l29.11 0c0.41,0 0.78,-0.07 1.12,-0.22 0.35,-0.15 0.65,-0.34 0.91,-0.58 0.26,-0.24 0.46,-0.52 0.61,-0.84 0.15,-0.32 0.23,-0.65 0.23,-0.99l0 -11.22c0,-0.34 -0.08,-0.67 -0.23,-0.99 -0.15,-0.32 -0.35,-0.6 -0.61,-0.83 -0.26,-0.24 -0.56,-0.43 -0.91,-0.57 -0.34,-0.13 -0.71,-0.2 -1.12,-0.2l-29.11 0c-0.41,0 -0.78,0.07 -1.12,0.2 -0.35,0.14 -0.65,0.33 -0.91,0.57 -0.26,0.23 -0.46,0.51 -0.61,0.83 -0.15,0.32 -0.22,0.65 -0.22,0.99l0 11.22c0,0.34 0.07,0.67 0.22,0.99 0.15,0.32 0.35,0.6 0.61,0.84 0.26,0.24 0.56,0.43 0.91,0.58 0.34,0.15 0.71,0.22 1.12,0.22zm0.04 -20.16l29.1 0c0.91,0 1.78,0.16 2.6,0.49 0.82,0.33 1.53,0.79 2.15,1.37 0.61,0.58 1.09,1.25 1.45,2.03 0.35,0.77 0.53,1.6 0.53,2.49l0 11.19c0,0.89 -0.18,1.72 -0.53,2.49 -0.36,0.78 -0.84,1.45 -1.45,2.03 -0.62,0.58 -1.33,1.04 -2.15,1.37 -0.82,0.33 -1.69,0.49 -2.6,0.49l-29.1 0c-0.94,0 -1.81,-0.16 -2.61,-0.49 -0.81,-0.33 -1.52,-0.79 -2.14,-1.37 -0.61,-0.58 -1.09,-1.25 -1.45,-2.03 -0.35,-0.77 -0.53,-1.6 -0.53,-2.49l0 -11.19c0,-0.89 0.18,-1.72 0.53,-2.49 0.36,-0.78 0.84,-1.45 1.45,-2.03 0.62,-0.58 1.33,-1.04 2.14,-1.37 0.8,-0.33 1.67,-0.49 2.61,-0.49zm-36.92 0l3.92 0 0 23.88 -3.92 0 0 -23.88zm-67.43 3.75l0 -3.75 42.52 0 0 3.75 -19.35 0 0 20.13 -3.89 0 0 -20.13 -19.28 0zm-53.67 -3.75l30.06 0 0 3.72 -30.06 0c-1,-0.02 -1.96,0.12 -2.87,0.44 -0.91,0.32 -1.73,0.77 -2.47,1.35 -0.74,0.58 -1.38,1.27 -1.9,2.07 -0.52,0.8 -0.88,1.65 -1.09,2.56l-0.1 0.48c-0.05,0.19 -0.08,0.38 -0.1,0.58 -0.03,0.21 -0.05,0.44 -0.07,0.69 0,1.07 0.22,2.1 0.66,3.09 0.45,1 1.05,1.87 1.81,2.64 0.76,0.76 1.67,1.37 2.73,1.83 1.06,0.45 2.2,0.68 3.43,0.68l30.06 0 0 3.72 -30.06 0c-1.68,0 -3.29,-0.31 -4.81,-0.92 -1.53,-0.62 -2.86,-1.46 -4,-2.55 -1.14,-1.07 -2.05,-2.34 -2.71,-3.78 -0.67,-1.45 -1,-3.01 -1,-4.69 0,-1.67 0.34,-3.22 1.01,-4.68 0.68,-1.45 1.59,-2.72 2.73,-3.79 1.15,-1.07 2.47,-1.91 3.99,-2.52 1.51,-0.62 3.1,-0.92 4.76,-0.92zm-80.26 0l3.89 0 0 17.54c0,0.34 0.07,0.67 0.22,0.99 0.15,0.31 0.35,0.59 0.61,0.83 0.27,0.24 0.56,0.43 0.89,0.58 0.33,0.15 0.68,0.22 1.04,0.22l29.21 0c0.8,0 1.46,-0.26 1.98,-0.78 0.52,-0.52 0.79,-1.14 0.79,-1.84l0 -17.54 3.89 0 0 17.54c0,0.88 -0.19,1.71 -0.55,2.49 -0.36,0.77 -0.85,1.44 -1.47,2.01 -0.61,0.57 -1.32,1.02 -2.13,1.35 -0.81,0.33 -1.64,0.49 -2.51,0.49l-29.21 0c-0.86,0 -1.69,-0.16 -2.49,-0.49 -0.8,-0.33 -1.5,-0.78 -2.11,-1.35 -0.62,-0.57 -1.11,-1.24 -1.49,-2.01 -0.37,-0.78 -0.56,-1.61 -0.56,-2.49l0 -17.54zm-68.41 3.78l0 -3.71 35.28 0c1.11,0 2.12,0.19 3.03,0.59 0.91,0.4 1.68,0.93 2.31,1.6 0.62,0.67 1.1,1.42 1.43,2.27 0.33,0.83 0.5,1.69 0.5,2.56 0,0.88 -0.19,1.74 -0.57,2.59 -0.37,0.85 -0.95,1.61 -1.72,2.26 -0.68,0.62 -1.43,1.08 -2.24,1.38 -0.8,0.31 -1.72,0.47 -2.74,0.5l-0.14 0 8.7 10.1 -4.6 0 -9.08 -10.07 -26.24 0 0 10.07 -3.89 0 0 -13.79 35.69 0c0.82,-0.11 1.52,-0.46 2.12,-1.06 0.59,-0.59 0.88,-1.29 0.88,-2.11 0,-0.82 -0.29,-1.53 -0.88,-2.13 -0.6,-0.61 -1.3,-0.95 -2.12,-1.05l-35.72 0zm-67.43 -0.03l0 -3.75 42.52 0 0 3.75 -19.35 0 0 20.13 -3.89 0 0 -20.13 -19.28 0zm-66.4 16.35l35.28 0c0.45,0 0.89,-0.09 1.3,-0.26 0.41,-0.17 0.76,-0.4 1.05,-0.68 0.3,-0.29 0.53,-0.62 0.7,-1.01 0.18,-0.39 0.26,-0.8 0.26,-1.23 0,-0.89 -0.32,-1.63 -0.96,-2.23 -0.63,-0.61 -1.4,-0.91 -2.28,-0.91l-28.19 0c-0.88,0 -1.75,-0.17 -2.61,-0.51 -0.85,-0.34 -1.61,-0.82 -2.28,-1.43 -0.67,-0.62 -1.21,-1.34 -1.62,-2.17 -0.41,-0.83 -0.62,-1.73 -0.62,-2.71l0 -0.14c0,-0.95 0.2,-1.85 0.6,-2.68 0.4,-0.83 0.93,-1.55 1.58,-2.16 0.66,-0.62 1.42,-1.1 2.29,-1.45 0.86,-0.36 1.77,-0.53 2.72,-0.53l35.26 0 0 3.72 -35.22 0c-0.48,-0.02 -0.91,0.04 -1.31,0.19 -0.4,0.14 -0.75,0.36 -1.06,0.65 -0.3,0.28 -0.54,0.62 -0.71,1.01 -0.17,0.39 -0.26,0.8 -0.26,1.23 0,0.44 0.09,0.85 0.26,1.24 0.17,0.39 0.4,0.73 0.7,1.01 0.29,0.29 0.64,0.52 1.05,0.69 0.41,0.17 0.84,0.25 1.29,0.25l28.07 0c0.91,0 1.8,0.19 2.66,0.55 0.86,0.37 1.63,0.85 2.3,1.47 0.67,0.61 1.21,1.34 1.62,2.18 0.41,0.84 0.61,1.74 0.61,2.7 0,0.95 -0.19,1.85 -0.56,2.68 -0.38,0.83 -0.89,1.56 -1.55,2.2 -0.66,0.63 -1.43,1.14 -2.31,1.5 -0.87,0.36 -1.81,0.54 -2.81,0.54l-35.25 0 0 -3.71zm-67.84 3.61l0 -23.85 38.7 18.05 0 -17.91 3.89 0 0 23.88c-0.21,-0.09 -0.49,-0.22 -0.84,-0.39 -0.36,-0.17 -0.89,-0.42 -1.62,-0.77 -0.73,-0.34 -1.72,-0.8 -2.97,-1.4 -1.26,-0.59 -2.82,-1.32 -4.7,-2.2 -1.88,-0.87 -4.16,-1.94 -6.85,-3.19 -2.69,-1.25 -5.82,-2.71 -9.39,-4.38 -3.57,-1.67 -7.69,-3.59 -12.33,-5.75l0 17.91 -3.89 0zm-62.14 -3.55l29.11 0c0.41,0 0.79,-0.07 1.13,-0.22 0.34,-0.15 0.64,-0.34 0.9,-0.58 0.26,-0.24 0.47,-0.52 0.62,-0.84 0.14,-0.32 0.22,-0.65 0.22,-0.99l0 -11.22c0,-0.34 -0.08,-0.67 -0.22,-0.99 -0.15,-0.32 -0.36,-0.6 -0.62,-0.83 -0.26,-0.24 -0.56,-0.43 -0.9,-0.57 -0.34,-0.13 -0.72,-0.2 -1.13,-0.2l-29.11 0c-0.41,0 -0.78,0.07 -1.12,0.2 -0.34,0.14 -0.65,0.33 -0.91,0.57 -0.26,0.23 -0.46,0.51 -0.61,0.83 -0.15,0.32 -0.22,0.65 -0.22,0.99l0 11.22c0,0.34 0.07,0.67 0.22,0.99 0.15,0.32 0.35,0.6 0.61,0.84 0.26,0.24 0.57,0.43 0.91,0.58 0.34,0.15 0.71,0.22 1.12,0.22zm0.04 -20.16l29.1 0c0.92,0 1.78,0.16 2.6,0.49 0.82,0.33 1.53,0.79 2.15,1.37 0.61,0.58 1.1,1.25 1.45,2.03 0.35,0.77 0.53,1.6 0.53,2.49l0 11.19c0,0.89 -0.18,1.72 -0.53,2.49 -0.35,0.78 -0.84,1.45 -1.45,2.03 -0.62,0.58 -1.33,1.04 -2.15,1.37 -0.82,0.33 -1.68,0.49 -2.6,0.49l-29.1 0c-0.93,0 -1.81,-0.16 -2.61,-0.49 -0.81,-0.33 -1.52,-0.79 -2.13,-1.37 -0.62,-0.58 -1.1,-1.25 -1.45,-2.03 -0.36,-0.77 -0.53,-1.6 -0.53,-2.49l0 -11.19c0,-0.89 0.17,-1.72 0.53,-2.49 0.35,-0.78 0.83,-1.45 1.45,-2.03 0.61,-0.58 1.32,-1.04 2.13,-1.37 0.8,-0.33 1.68,-0.49 2.61,-0.49zm-61.76 0l30.06 0 0 3.72 -30.06 0c-1,-0.02 -1.96,0.12 -2.87,0.44 -0.91,0.32 -1.73,0.77 -2.47,1.35 -0.74,0.58 -1.37,1.27 -1.89,2.07 -0.53,0.8 -0.89,1.65 -1.1,2.56l-0.1 0.48c-0.05,0.19 -0.08,0.38 -0.1,0.58 -0.03,0.21 -0.05,0.44 -0.07,0.69 0,1.07 0.22,2.1 0.66,3.09 0.45,1 1.05,1.87 1.81,2.64 0.77,0.76 1.67,1.37 2.73,1.83 1.06,0.45 2.2,0.68 3.43,0.68l30.06 0 0 3.72 -30.06 0c-1.68,0 -3.29,-0.31 -4.81,-0.92 -1.52,-0.62 -2.86,-1.46 -4,-2.55 -1.14,-1.07 -2.05,-2.34 -2.71,-3.78 -0.67,-1.45 -1,-3.01 -1,-4.69 0,-1.67 0.34,-3.22 1.01,-4.68 0.68,-1.45 1.59,-2.72 2.73,-3.79 1.15,-1.07 2.47,-1.91 3.99,-2.52 1.51,-0.62 3.1,-0.92 4.76,-0.92z"/>
   <polygon class="fil0" points="317.53,166.34 601.09,166.34 601.09,141.35 317.53,141.35 "/>
   <polygon class="fil0" points="600.75,74.32 317.53,74.32 317.53,98.86 600.75,98.86 "/>
   <polygon class="fil0" points="317.53,31.83 600.75,31.83 600.75,7.07 317.53,6.84 "/>
   <path class="fil0" d="M658.78 42.6c1.37,-1.27 2.9,-2.22 4.68,-2.89 1.73,-0.64 3.73,-0.92 5.94,-0.82l241.92 0.01 0 -38.9 -241.82 0c-7.25,0 -14.26,1.36 -20.84,4.05 -6.53,2.66 -12.37,6.38 -17.36,11.02 -5.01,4.68 -9.09,10.25 -12.11,16.55 -3.09,6.47 -4.66,13.49 -4.66,20.89l0 0.91c0,7.58 1.62,14.71 4.81,21.19 3.11,6.29 7.27,11.85 12.36,16.52 5.08,4.64 10.92,8.31 17.38,10.89 6.49,2.59 13.22,3.91 20,3.91l187.68 0c4.12,0 7.42,1.3 10.36,4.09 2.84,2.68 4.16,5.78 4.16,9.74 0,1.91 -0.36,3.65 -1.11,5.33 -0.76,1.74 -1.77,3.2 -3.08,4.46 -1.35,1.29 -2.94,2.31 -4.87,3.12 -1.87,0.78 -3.81,1.16 -5.91,1.16l-242.01 0 0 38.9 241.82 0c7.57,0 14.78,-1.4 21.44,-4.18 6.63,-2.75 12.52,-6.6 17.52,-11.44 5.02,-4.84 9.01,-10.5 11.87,-16.83 2.9,-6.42 4.37,-13.4 4.37,-20.74 0,-7.41 -1.61,-14.48 -4.8,-21.04 -3.1,-6.38 -7.25,-11.99 -12.35,-16.66 -5.03,-4.61 -10.86,-8.34 -17.34,-11.08 -6.6,-2.78 -13.48,-4.19 -20.44,-4.19l-186.89 0c-2.1,0 -4.03,-0.38 -5.89,-1.16 -1.92,-0.8 -3.5,-1.83 -4.85,-3.13 -1.31,-1.26 -2.32,-2.73 -3.09,-4.5 -0.74,-1.7 -1.1,-3.46 -1.1,-5.39 0,-1.92 0.36,-3.68 1.11,-5.39 0.74,-1.71 1.76,-3.15 3.1,-4.4z"/>
   <path class="fil0" d="M55.97 6.89c-10.75,4.39 -20.37,10.51 -28.61,18.18 -8.28,7.7 -14.96,16.92 -19.87,27.39 -4.97,10.6 -7.49,22.15 -7.49,34.36 0,12.35 2.52,23.99 7.49,34.58 4.9,10.47 11.58,19.72 19.84,27.48 8.26,7.77 17.91,13.9 28.68,18.23 10.79,4.33 22.23,6.53 33.99,6.53l207.02 0 0 -105.93 -109.58 0 26.77 38.9 42.77 0 0 28.12 -166.98 0c-6.75,0 -13.2,-1.27 -19.2,-3.77 -6.06,-2.54 -11.46,-6.02 -16.05,-10.35 -4.53,-4.28 -8.16,-9.39 -10.8,-15.2 -2.59,-5.71 -3.91,-11.93 -3.91,-18.48l0 -0.23c0,-6.39 1.28,-12.51 3.81,-18.17 2.58,-5.75 6.16,-10.88 10.64,-15.24 4.49,-4.36 9.82,-7.86 15.86,-10.38 6,-2.51 12.61,-3.78 19.65,-3.78l207.02 0 0 -38.9 -207.02 0c-11.78,0 -23.23,2.24 -34.03,6.66z"/>
  </g>
 </g>
</svg>
