<svg xmlns="http://www.w3.org/2000/svg" xml:space="preserve" width="672" height="201" style="shape-rendering:geometricPrecision;text-rendering:geometricPrecision;image-rendering:optimizeQuality;fill-rule:evenodd;clip-rule:evenodd" viewBox="0 0 332.5 99.32"><path d="m123.99 41.08-57.67-2.57 61.52-4.85-3.85 7.42zm7.6 49.5c.02.12.05.24.07.39.03.14.09.21.19.21.09 0 .19-.07.28-.21l.26-.39L139 79.43h3.54l-8.56 13.88c-.21.34-.43.6-.66.78-.22.18-.45.31-.68.39-.22.09-.46.14-.69.15-.24.01-.46.01-.67.01-.21 0-.42 0-.64-.01a1.47 1.47 0 0 1-.59-.15c-.18-.08-.34-.21-.49-.39-.14-.18-.25-.44-.32-.78l-2.78-13.88h3.43l1.7 11.15zm16.94 3.89c-1.31 0-2.41-.16-3.31-.48-.89-.32-1.62-.77-2.17-1.35a5.29 5.29 0 0 1-1.19-2.06c-.24-.79-.37-1.66-.37-2.61 0-.58.04-1.18.12-1.8.07-.61.18-1.25.31-1.91.3-1.5.69-2.84 1.16-4.03.48-1.19 1.11-2.21 1.9-3.04.8-.83 1.8-1.47 3.01-1.91 1.21-.45 2.71-.67 4.48-.67h7.98l-.63 2.98h-6.21c-1.21 0-2.25.11-3.11.33-.86.21-1.59.59-2.2 1.12-.6.53-1.1 1.24-1.5 2.14-.4.9-.74 2.02-1.02 3.36-.29 1.25-.43 2.31-.43 3.18 0 .72.11 1.32.31 1.8.21.48.53.87.95 1.16.43.3.98.5 1.65.63.67.12 1.47.18 2.4.18h6.52l-.65 2.98h-8zm22.81-15.04c1.17 0 2.03.33 2.58.98.55.65.82 1.44.82 2.34 0 .42-.03.79-.11 1.11l-1.73 8.06c-.19.85-.5 1.49-.94 1.91-.43.43-1.15.64-2.15.64h-7.29c-1.04 0-1.83-.29-2.36-.87-.53-.57-.79-1.4-.79-2.48 0-.24 0-.5.01-.78.01-.27.04-.55.1-.83.32-1.42.84-2.51 1.55-3.27.71-.75 1.77-1.13 3.19-1.13h6.81l.22-.97c.06-.24.09-.47.09-.68 0-.98-.58-1.47-1.73-1.47h-7.35l.54-2.56h8.54zm-6.38 8.23c-.57 0-1.01.15-1.32.45-.31.31-.56.83-.73 1.57-.09.37-.14.7-.14.99 0 .83.43 1.25 1.28 1.25h4.68c.59 0 .94-.29 1.05-.85l.71-3.41h-5.53zm12-2.55c.22-1.08.53-1.98.92-2.71s.87-1.31 1.45-1.75c.57-.43 1.27-.74 2.08-.93.81-.19 1.76-.29 2.84-.29h2.24l-.54 2.56h-1.39c-1.34 0-2.35.33-3.02.99-.67.66-1.15 1.66-1.43 3.01l-1.82 8.48h-3.32l1.99-9.36zm21.39 6.81c-.19.87-.5 1.51-.94 1.93-.43.41-1.15.62-2.15.62h-4.97c-.95 0-1.74-.12-2.4-.35-.65-.24-1.18-.58-1.59-1.01-.4-.44-.7-.96-.89-1.58-.19-.61-.28-1.3-.28-2.05 0-.44.03-.89.1-1.37.06-.47.14-.96.24-1.47.24-1.21.55-2.27.91-3.16.36-.9.83-1.65 1.41-2.24.59-.6 1.32-1.05 2.19-1.35.87-.31 1.95-.46 3.23-.46h4.48l1.03-4.82h3.32l-3.69 17.31zm-4.85-9.93c-.8 0-1.46.12-1.99.37-.53.24-.96.59-1.29 1.03-.33.45-.6.97-.8 1.58-.19.6-.37 1.25-.52 1.95-.09.46-.17.89-.24 1.31-.07.41-.1.81-.1 1.19 0 .78.2 1.39.6 1.83.39.44 1.13.67 2.21.67h2.81c.58 0 .93-.29 1.05-.85l1.93-9.08h-3.66zm13.73 9.5h11c.46 0 .83-.07 1.11-.2.28-.13.51-.29.68-.47.17-.18.3-.37.37-.58.08-.21.13-.39.17-.56.04-.16.07-.31.09-.47.01-.16.02-.31.02-.44 0-.31-.1-.59-.32-.85-.22-.27-.63-.51-1.24-.71l-7.03-2.47c-.95-.32-1.63-.83-2.04-1.52-.42-.69-.63-1.5-.63-2.42 0-.27.01-.54.02-.81.01-.28.03-.57.07-.87.11-.72.29-1.36.54-1.91.24-.56.59-1.03 1.03-1.42.45-.39.99-.68 1.65-.88.65-.2 1.44-.3 2.37-.3h11.43l-.63 2.98h-10.44c-.6 0-1.07.11-1.4.33-.33.21-.56.65-.69 1.31-.04.16-.07.32-.09.5-.02.18-.03.35-.03.5 0 .3.1.57.29.82.18.25.54.46 1.07.65l6.5 2.3c1.12.38 1.96.9 2.54 1.56.58.66.86 1.53.86 2.61 0 .23 0 .46-.01.71-.01.25-.03.5-.07.77-.23 1.47-.76 2.64-1.6 3.51-.85.87-2.1 1.31-3.76 1.31h-12.49l.66-2.98zm22.49 7.83h-3.37l3.35-4.91-3.52-14.98h3.32l2.38 11.66 7.55-11.66h3.49l-13.2 19.89zm11.49-7.4h8.46c.34 0 .68-.06 1.02-.17.34-.12.57-.42.68-.91.04-.1.06-.21.07-.33.01-.12.02-.22.02-.3 0-.2-.09-.39-.26-.56a2.55 2.55 0 0 0-.67-.47c-.27-.14-.57-.27-.9-.38-.33-.12-.66-.23-.98-.35l-2.44-.79c-1.23-.4-2.13-.89-2.68-1.47-.56-.59-.84-1.29-.84-2.1v-.53c0-.18.02-.36.06-.55.11-.68.29-1.25.54-1.72.24-.46.58-.83 1-1.1.43-.28.94-.47 1.55-.59.6-.11 1.32-.17 2.15-.17h8.49l-.54 2.56h-7.97c-.55 0-.96.08-1.24.24-.27.16-.46.49-.55.98-.02.09-.03.19-.04.28-.01.09-.02.17-.02.23a1 1 0 0 0 .2.62c.13.17.29.32.48.44s.4.22.61.3c.22.08.42.14.61.2l2.75.88c.57.17 1.1.36 1.59.56.5.21.93.46 1.31.74.38.29.67.62.89 1.01.22.39.33.86.33 1.43 0 .15-.01.31-.02.48-.01.17-.03.35-.07.54-.11.57-.26 1.08-.45 1.52-.19.45-.45.82-.79 1.12-.35.3-.78.53-1.3.68-.52.15-1.17.23-1.97.23h-9.61l.53-2.55zm21.14 2.55c-1.48 0-2.66-.29-3.56-.88-.9-.59-1.35-1.5-1.35-2.75 0-.42.05-.84.14-1.28l1.62-7.57h-2.07l.54-2.56h2.07l1.02-4.82h3.32l-1.02 4.82h4.28l-.54 2.56h-4.28l-1.48 6.89c-.03.19-.06.37-.08.55-.02.18-.03.35-.03.5 0 .76.25 1.28.74 1.56s1.22.43 2.18.43h.83l-.54 2.55h-1.79zm8.96 0c-.88 0-1.63-.1-2.24-.3-.6-.2-1.09-.49-1.47-.86a3.36 3.36 0 0 1-.82-1.39c-.18-.55-.26-1.18-.26-1.88 0-.49.04-1.02.11-1.59.08-.56.18-1.17.32-1.81.32-1.49.71-2.72 1.16-3.67.45-.96 1.02-1.71 1.7-2.26.68-.55 1.49-.93 2.43-1.13.93-.21 2.04-.32 3.33-.32.93 0 1.78.07 2.57.22.78.14 1.46.38 2.04.73.58.35 1.03.82 1.35 1.39.32.58.48 1.29.48 2.15 0 .26-.01.54-.03.83-.02.3-.06.6-.14.93-.17.85-.49 1.48-.96 1.91-.48.42-1.14.64-1.99.64h-8.74c-.13.6-.2 1.18-.2 1.73 0 .66.18 1.18.54 1.56.36.38 1.05.57 2.07.57h7.35l-.54 2.55h-8.06zm6.27-8.96c.33 0 .55-.1.69-.29.13-.19.21-.39.25-.6.02-.11.03-.23.04-.36.01-.14.02-.25.02-.34 0-.4-.09-.73-.27-1-.18-.26-.42-.47-.71-.64-.29-.16-.64-.27-1.04-.35a6.22 6.22 0 0 0-1.24-.11c-1.42 0-2.48.29-3.18.88-.7.58-1.18 1.52-1.45 2.81h6.89zm6.98-3.52c.19-.85.5-1.49.94-1.92.43-.42 1.15-.64 2.16-.64h12.73c.74 0 1.43.07 2.06.22.63.14 1.18.37 1.65.68.46.31.82.71 1.07 1.19.26.48.39 1.06.39 1.74 0 .21-.01.43-.03.67-.02.24-.05.45-.09.64l-2.12 9.9H300l1.93-9.02c.11-.47.17-.92.17-1.34 0-.71-.21-1.25-.61-1.6-.41-.35-1.07-.52-1.98-.52h-2.58l-2.66 12.48h-3.32l2.66-12.48h-4.88c-.58 0-.93.28-1.05.85l-2.46 11.63h-3.32l2.66-12.48zM155.99 5.24c-53.7.21-105.03 7.69-120.93 30.95-14.66 21.42 44.82 22.89 70.39 22.74l4.17-8.14-46.36-2.91 59.82-3.23-11.45 21.95C-73.92 96.09-6.52-26.31 155.99 5.24zm3.47 61.19 3.06-6.53h-23.28c-1.3 0-2.27-.06-2.53-.56-.23-.31-.16-1 .16-1.68l4.78-10.21h25.83l3.06-6.53h-25.82l4.11-8.78c.29-.62.7-1.49 1.67-2.12.89-.56 1.79-.62 2.53-.62h23.53l3.06-6.53h-27.94c-1.68 0-3.86.12-6.02 1.68-1.43 1.06-2.8 2.8-3.62 4.54l-14.46 30.87c-.79 1.68-1.6 3.67-.78 5.1.79 1.37 2.47 1.37 4.34 1.37h28.32zm74.15-43.56h-7.96L210.6 54.98c-.14.31-.49 1.06-1.18 1.06-.56 0-.39-.62-.5-1.06l-4.81-29.19c-.31-1.87-1.44-3.42-5.3-3.42-4.11 0-7.68 2.18-9.43 5.91L171.5 66.43h7.97l14.99-31.99c.41-.87 1.14-1.24 1.45-1.24.13 0 .32.12.5 1.06l4.77 29c.5 3.05 2.7 3.67 5.32 3.67 3.54 0 7.28-1.74 9.35-6.16l17.76-37.9zm28.91 43.56 3.07-6.53h-14.75c-5.17 0-8.8-.75-9.44-4.17-.23-1.37-.16-4.05 2.91-10.58 3.03-6.47 5.69-9.77 7.91-11.7 4.23-3.74 8.49-4.05 13.34-4.05h13.63l3.06-6.53h-17.49c-3.11 0-10.07.37-16.81 5.47-5.69 4.3-9.25 10.71-12.17 16.93-2.24 4.8-5.05 11.45-3.1 16.06 1.91 4.54 7.32 5.1 11.49 5.1h18.35zm53.86-44.06c-5.29 0-12.51 0-19.53 4.6-6.83 4.49-10.55 11.77-13.32 17.68-2.3 4.92-6.01 12.82-3.24 17.68 2.64 4.6 10.04 4.6 15.21 4.6 5.04 0 12.63 0 19.52-4.6 6.52-4.36 10.58-11.95 13.26-17.68 2.68-5.73 5.8-13.32 3.3-17.68-2.63-4.6-10.04-4.6-15.2-4.6zM292 44.65c3.12-6.66 5.72-10.08 8.39-12.2 4.04-3.17 8.32-3.55 12.86-3.55 4.42 0 8.54.38 9.6 3.55.59 1.68.49 4.67-3.03 12.2-3.3 7.03-6.09 10.33-8.37 12.14-4.16 3.29-8.47 3.61-12.95 3.61-4.55 0-8.51-.32-9.51-3.61-.59-1.81-.32-5.04 3.01-12.14zM129.58 30.29l-58.67-1.82 62.55-5.65-3.88 7.47z" style="fill:#fefefe;fill-rule:nonzero"/></svg>