<svg xmlns="http://www.w3.org/2000/svg" xml:space="preserve" width="266" height="200" style="shape-rendering:geometricPrecision;text-rendering:geometricPrecision;image-rendering:optimizeQuality;fill-rule:evenodd;clip-rule:evenodd" viewBox="0 0 64.58 48.44"><path d="M57.18 0H7.4C3.32 0 0 3.32 0 7.4v33.64c0 4.08 3.32 7.4 7.4 7.4h49.78c4.08 0 7.4-3.32 7.4-7.4V7.4c0-4.08-3.32-7.4-7.4-7.4zm-37 10.76c3.71 0 6.73 3.02 6.73 6.73 0 3.71-3.02 6.73-6.73 6.73-3.71 0-6.73-3.02-6.73-6.73 0-3.71 3.02-6.73 6.73-6.73zm12.11 24.89c0 1.12-.9 2.02-2.02 2.02H10.09c-1.11 0-2.02-.9-2.02-2.02v-1.34c0-4.08 3.32-7.4 7.4-7.4h9.42c4.08 0 7.4 3.32 7.4 7.4v1.34zm22.2 2.02h-14.8c-1.11 0-2.02-.9-2.02-2.02 0-1.11.91-2.01 2.02-2.01h14.8c1.11 0 2.02.9 2.02 2.01 0 1.12-.91 2.02-2.02 2.02zm0-10.76h-14.8c-1.11 0-2.02-.91-2.02-2.02 0-1.11.91-2.02 2.02-2.02h14.8c1.11 0 2.02.91 2.02 2.02 0 1.11-.91 2.02-2.02 2.02zm0-10.76h-14.8c-1.11 0-2.02-.91-2.02-2.02 0-1.12.91-2.02 2.02-2.02h14.8c1.11 0 2.02.9 2.02 2.02 0 1.11-.91 2.01-2.02 2.01v.01z" style="fill:#fff;fill-rule:nonzero"/></svg>