<svg xmlns="http://www.w3.org/2000/svg" xml:space="preserve" width="100" height="100" style="shape-rendering:geometricPrecision;text-rendering:geometricPrecision;image-rendering:optimizeQuality;fill-rule:evenodd;clip-rule:evenodd" viewBox="0 0 170.44 170.44"><defs><style>.fil0{fill:#001460;fill-rule:nonzero}</style></defs><g id="Слой_x0020_1"><g id="_1876827490080"><path class="fil0" d="M155.97 152.04c0 6.51-5.29 11.79-11.79 11.79H26.26c-6.51 0-11.79-5.28-11.79-11.79v-7.86c0-23.85 19.39-43.24 43.23-43.24h55.03c23.85 0 43.24 19.39 43.24 43.24v7.86zM85.22 6.61c21.66 0 39.3 17.64 39.3 39.3 0 21.67-17.64 39.31-39.3 39.31-21.67 0-39.31-17.64-39.31-39.31 0-21.66 17.64-39.3 39.31-39.3z"/></g><path style="fill:none" d="M0 0h170.44v170.44H0z"/></g></svg>