<svg xmlns="http://www.w3.org/2000/svg" xml:space="preserve" width="100" height="100" style="shape-rendering:geometricPrecision;text-rendering:geometricPrecision;image-rendering:optimizeQuality;fill-rule:evenodd;clip-rule:evenodd" viewBox="0 0 4.39 4.39"><path d="M4.17 2.29 3.42 2c-.03-.01-.08-.03-.15 0l-.75.29c-.07.03-.12.09-.12.17 0 .73.45 1.23.87 1.4.07.02.12.01.15 0 .33-.14.87-.59.87-1.4 0-.08-.05-.14-.12-.17zm-.3.55-.59-.03.62-.05-.03.08zm.05-.11-.59-.02.63-.06-.04.08zm.27-.26c-.54.01-1.06.08-1.22.32-.15.21.45.23.71.22l.04-.08-.47-.03.61-.03-.12.22c-1.87.3-1.19-.93.45-.62zm-2.62-.28c.46 0 .83-.37.83-.83a.83.83 0 0 0-.83-.84c-.47 0-.84.37-.84.84 0 .46.37.83.84.83zm.62.27c0-.02.01-.04.01-.05-.02 0-.03-.01-.05-.01h-.11a1.092 1.092 0 0 1-.95 0H.98c-.49 0-.88.4-.88.88v.28c0 .17.14.31.31.31h2.31c.04 0 .08-.01.12-.03-.35-.28-.65-.76-.65-1.38z" style="fill:#213250;fill-rule:nonzero"/><path style="fill:none" d="M0 0h4.39v4.39H0z"/></svg>