<?xml version="1.0" encoding="UTF-8"?>
<!DOCTYPE svg PUBLIC "-//W3C//DTD SVG 1.1//EN" "http://www.w3.org/Graphics/SVG/1.1/DTD/svg11.dtd">
<!-- Creator: CorelDRAW -->
<svg xmlns="http://www.w3.org/2000/svg" xml:space="preserve" width="30.65mm" height="30.65mm" version="1.1" style="shape-rendering:geometricPrecision; text-rendering:geometricPrecision; image-rendering:optimizeQuality; fill-rule:evenodd; clip-rule:evenodd"
viewBox="0 0 21205.93 21205.93"
 xmlns:xlink="http://www.w3.org/1999/xlink"
 xmlns:xodm="http://www.corel.com/coreldraw/odm/2003">
 <defs>
  <style type="text/css">
   <![CDATA[
    .fil0 {fill:none;fill-rule:nonzero}
    .fil2 {fill:#FEFEFE;fill-rule:nonzero}
    .fil1 {fill:#2A3AC6;fill-rule:nonzero}
   ]]>
  </style>
 </defs>
 <g id="Слой_x0020_1">
  <metadata id="CorelCorpID_0Corel-Layer"/>
  <polygon class="fil0" points="-0,0 21205.93,0 21205.93,21205.86 -0,21205.93 "/>
 </g>
 <g id="Layer_x0020_1">
  <metadata id="CorelCorpID_1Corel-Layer"/>
  <path class="fil1" d="M19405.53 18916.58c0,809.98 -658.18,1466.84 -1466.84,1466.84l-14671.46 0.07c-809.98,0 -1466.84,-656.86 -1466.84,-1466.84l0 -977.96c0,-2967.45 2412.42,-5379.87 5378.56,-5379.87l6846.71 0c2967.45,0 5379.87,2412.42 5379.87,5379.87l0 977.96 0 -0.07zm-8802.57 -18094.15c2694.92,0 4889.68,2194.76 4889.68,4889.68 0,2696.16 -2194.76,4890.85 -4889.68,4890.85 -2696.16,0 -4890.85,-2194.76 -4890.85,-4890.85 0,-2694.92 2194.76,-4889.68 4890.85,-4889.68z"/>
  <g id="_2057691021776">
   <path class="fil2" d="M16016.39 19091.77l0 -388.49 630.23 294.05 0 -291.83 63.31 0 0 389.04c-3.32,-1.45 -7.82,-3.6 -13.63,-6.37 -5.74,-2.84 -14.53,-6.92 -26.36,-12.52 -11.9,-5.53 -28.02,-13.15 -48.43,-22.76 -20.41,-9.69 -45.87,-21.59 -76.45,-35.91 -30.58,-14.18 -67.8,-31.55 -111.53,-51.89 -43.8,-20.41 -94.79,-44.21 -152.97,-71.47 -58.26,-27.19 -125.16,-58.46 -200.85,-93.61l0 291.76 -63.31 0zm-1012.07 -57.77l474.07 0c6.64,0 12.8,-1.25 18.33,-3.67 5.53,-2.42 10.45,-5.53 14.74,-9.48 4.22,-3.87 7.54,-8.44 9.96,-13.63 2.42,-5.19 3.67,-10.59 3.67,-16.12l0 -182.72c0,-5.53 -1.25,-10.93 -3.67,-16.12 -2.42,-5.19 -5.74,-9.76 -9.96,-13.63 -4.29,-3.94 -9.2,-6.99 -14.74,-9.2 -5.53,-2.21 -11.69,-3.32 -18.33,-3.32l-474.07 0c-6.71,0 -12.8,1.11 -18.4,3.32 -5.53,2.21 -10.45,5.26 -14.67,9.2 -4.29,3.87 -7.61,8.44 -10.03,13.63 -2.42,5.19 -3.6,10.59 -3.6,16.12l0 182.72c0,5.53 1.18,10.93 3.6,16.12 2.42,5.19 5.74,9.76 10.03,13.63 4.22,3.94 9.13,7.06 14.67,9.48 5.6,2.42 11.69,3.67 18.4,3.67zm0.55 -328.5l474.07 0c14.81,0 28.92,2.7 42.2,8.03 13.35,5.4 25.05,12.8 35.08,22.28 9.96,9.41 17.85,20.48 23.59,33.07 5.74,12.59 8.65,26.08 8.65,40.54l0 182.31c0,14.46 -2.91,27.95 -8.65,40.54 -5.74,12.66 -13.63,23.66 -23.59,33.07 -10.03,9.48 -21.72,16.88 -35.08,22.28 -13.28,5.33 -27.4,8.03 -42.2,8.03l-474.07 0c-15.22,0 -29.4,-2.7 -42.55,-8.03 -13.15,-5.4 -24.7,-12.8 -34.73,-22.28 -10.03,-9.41 -17.85,-20.41 -23.59,-33.07 -5.74,-12.59 -8.65,-26.08 -8.65,-40.54l0 -182.31c0,-14.46 2.91,-27.95 8.65,-40.54 5.74,-12.59 13.56,-23.66 23.59,-33.07 10.03,-9.48 21.59,-16.88 34.73,-22.28 13.15,-5.33 27.33,-8.03 42.55,-8.03zm-601.31 0l63.86 0 0 389.04 -63.86 0 0 -389.04zm-1098.28 61.09l0 -61.09 692.5 0 0 61.09 -315.08 0 0 327.95 -63.38 0 0 -327.95 -314.04 0zm-874.18 -61.09l489.64 0 0 60.61 -489.64 0c-16.33,-0.35 -31.9,2.01 -46.7,7.2 -14.81,5.26 -28.23,12.59 -40.27,22 -12.04,9.48 -22.35,20.76 -30.86,33.69 -8.51,13.01 -14.46,26.91 -17.78,41.79l-1.66 7.75c-0.76,3.04 -1.31,6.16 -1.66,9.48 -0.42,3.39 -0.76,7.13 -1.11,11.21 0,17.44 3.6,34.25 10.79,50.37 7.26,16.19 17.02,30.44 29.47,42.9 12.38,12.45 27.19,22.35 44.49,29.75 17.23,7.47 35.84,11.21 55.83,11.21l489.64 0 0 60.54 -489.64 0c-27.47,0 -53.55,-4.98 -78.39,-15.01 -24.84,-9.96 -46.49,-23.8 -65.17,-41.44 -18.61,-17.5 -33.35,-38.12 -44.14,-61.65 -10.86,-23.52 -16.26,-48.98 -16.26,-76.45 0,-26.98 5.47,-52.37 16.54,-76.11 11,-23.73 25.81,-44.28 44.42,-61.72 18.68,-17.37 40.27,-31.13 64.9,-41.1 24.63,-10.03 50.51,-15.01 77.56,-15.01zm-1307.23 0l63.38 0 0 285.67c0,5.53 1.18,10.93 3.6,16.12 2.42,5.19 5.74,9.69 10.03,13.63 4.22,3.87 9.06,7.06 14.46,9.41 5.33,2.42 11,3.67 16.95,3.67l475.73 0c12.94,0 23.66,-4.29 32.24,-12.8 8.51,-8.51 12.8,-18.54 12.8,-30.03l0 -285.67 63.38 0 0 285.67c0,14.46 -3.04,27.95 -8.93,40.54 -5.95,12.59 -13.91,23.52 -23.94,32.79 -9.96,9.27 -21.59,16.6 -34.73,22 -13.15,5.33 -26.78,8.03 -40.82,8.03l-475.73 0c-14.11,0 -27.61,-2.7 -40.61,-8.03 -12.94,-5.4 -24.42,-12.73 -34.46,-22 -9.96,-9.27 -18.06,-20.2 -24.15,-32.79 -6.09,-12.59 -9.2,-26.08 -9.2,-40.54l0 -285.67zm-1114.26 61.72l0 -60.61 574.67 0c18.13,0 34.59,3.25 49.47,9.69 14.81,6.5 27.26,15.15 37.5,26.08 10.17,10.93 17.92,23.18 23.32,36.88 5.4,13.63 8.09,27.61 8.09,41.86 0,14.18 -3.04,28.23 -9.2,42.14 -6.09,13.84 -15.5,26.15 -28.02,36.81 -11.14,10.03 -23.32,17.5 -36.46,22.49 -13.15,4.98 -28.02,7.68 -44.7,8.03l-2.21 0 141.7 164.53 -75 0 -147.85 -163.97 -427.44 0 0 163.97 -63.31 0 0 -224.51 581.31 0c13.35,-1.87 24.84,-7.61 34.46,-17.23 9.62,-9.69 14.46,-21.1 14.46,-34.46 0,-13.35 -4.84,-24.91 -14.46,-34.73 -9.62,-9.82 -21.1,-15.5 -34.46,-16.95l-581.87 0zm-1098.21 -0.62l0 -61.09 692.5 0 0 61.09 -315.15 0 0 327.95 -63.38 0 0 -327.95 -313.97 0zm-1081.54 266.23l574.67 0c7.4,0 14.46,-1.38 21.1,-4.15 6.71,-2.77 12.38,-6.5 17.23,-11.14 4.84,-4.64 8.65,-10.1 11.42,-16.33 2.77,-6.37 4.15,-13.01 4.15,-20 0,-14.53 -5.19,-26.64 -15.57,-36.46 -10.31,-9.76 -22.76,-14.74 -37.22,-14.74l-459.06 0c-14.46,0 -28.64,-2.77 -42.55,-8.3 -13.84,-5.53 -26.29,-13.35 -37.22,-23.39 -10.93,-9.96 -19.72,-21.72 -26.36,-35.22 -6.71,-13.56 -10.03,-28.3 -10.03,-44.21l0 -2.21c0,-15.57 3.25,-30.1 9.69,-43.66 6.5,-13.49 15.15,-25.32 25.88,-35.29 10.72,-10.03 23.11,-17.85 37.22,-23.59 14.05,-5.74 28.85,-8.65 44.35,-8.65l574.26 0 0 60.61 -573.63 0c-7.82,-0.35 -14.88,0.62 -21.38,3.04 -6.5,2.42 -12.18,5.95 -17.23,10.65 -4.98,4.64 -8.86,10.1 -11.62,16.47 -2.77,6.37 -4.15,13.01 -4.15,20.06 0,7.13 1.38,13.84 4.15,20.13 2.77,6.37 6.57,11.9 11.35,16.47 4.84,4.7 10.59,8.44 17.23,11.21 6.64,2.84 13.7,4.22 21.03,4.22l457.19 0c14.81,0 29.2,2.91 43.24,8.86 14.05,5.95 26.57,13.91 37.5,23.94 10.93,9.96 19.65,21.86 26.36,35.56 6.64,13.7 9.96,28.37 9.96,43.86 0,15.57 -3.04,30.17 -9.2,43.66 -6.09,13.49 -14.46,25.46 -25.25,35.84 -10.72,10.38 -23.18,18.54 -37.43,24.42 -14.25,5.95 -29.54,8.93 -45.87,8.93l-574.19 0 0 -60.61zm-1104.92 58.95l0 -388.49 630.3 294.05 0 -291.83 63.31 0 0 389.04c-3.32,-1.45 -7.82,-3.6 -13.63,-6.37 -5.74,-2.84 -14.53,-6.92 -26.36,-12.52 -11.9,-5.53 -28.02,-13.15 -48.43,-22.76 -20.41,-9.69 -45.87,-21.59 -76.45,-35.91 -30.65,-14.18 -67.8,-31.55 -111.53,-51.89 -43.8,-20.41 -94.79,-44.21 -152.97,-71.47 -58.26,-27.19 -125.23,-58.46 -200.85,-93.61l0 291.76 -63.38 0zm-1012 -57.77l474.07 0c6.64,0 12.8,-1.25 18.33,-3.67 5.53,-2.42 10.45,-5.53 14.74,-9.48 4.22,-3.87 7.54,-8.44 9.96,-13.63 2.42,-5.19 3.67,-10.59 3.67,-16.12l0 -182.72c0,-5.53 -1.25,-10.93 -3.67,-16.12 -2.42,-5.19 -5.74,-9.76 -9.96,-13.63 -4.29,-3.94 -9.2,-6.99 -14.74,-9.2 -5.53,-2.21 -11.69,-3.32 -18.33,-3.32l-474.07 0c-6.71,0 -12.8,1.11 -18.4,3.32 -5.53,2.21 -10.45,5.26 -14.67,9.2 -4.29,3.87 -7.61,8.44 -10.03,13.63 -2.42,5.19 -3.6,10.59 -3.6,16.12l0 182.72c0,5.53 1.18,10.93 3.6,16.12 2.42,5.19 5.74,9.76 10.03,13.63 4.22,3.94 9.13,7.06 14.67,9.48 5.6,2.42 11.69,3.67 18.4,3.67zm0.55 -328.5l474.07 0c14.81,0 28.85,2.7 42.2,8.03 13.35,5.4 25.05,12.8 35.01,22.28 10.03,9.41 17.92,20.48 23.66,33.07 5.74,12.59 8.58,26.08 8.58,40.54l0 182.31c0,14.46 -2.84,27.95 -8.58,40.54 -5.74,12.66 -13.63,23.66 -23.66,33.07 -9.96,9.48 -21.66,16.88 -35.01,22.28 -13.35,5.33 -27.4,8.03 -42.2,8.03l-474.07 0c-15.22,0 -29.4,-2.7 -42.55,-8.03 -13.15,-5.4 -24.7,-12.8 -34.73,-22.28 -10.03,-9.41 -17.85,-20.41 -23.59,-33.07 -5.74,-12.59 -8.65,-26.08 -8.65,-40.54l0 -182.31c0,-14.46 2.91,-27.95 8.65,-40.54 5.74,-12.59 13.56,-23.66 23.59,-33.07 10.03,-9.48 21.59,-16.88 34.73,-22.28 13.15,-5.33 27.33,-8.03 42.55,-8.03zm-1005.98 0l489.64 0 0 60.61 -489.64 0c-16.26,-0.35 -31.83,2.01 -46.63,7.2 -14.88,5.26 -28.3,12.59 -40.34,22 -12.04,9.48 -22.35,20.76 -30.79,33.69 -8.58,13.01 -14.53,26.91 -17.85,41.79l-1.66 7.75c-0.69,3.04 -1.25,6.16 -1.59,9.48 -0.42,3.39 -0.76,7.13 -1.18,11.21 0,17.44 3.67,34.25 10.86,50.37 7.2,16.19 17.02,30.44 29.47,42.9 12.38,12.45 27.19,22.35 44.42,29.75 17.23,7.47 35.84,11.21 55.9,11.21l489.64 0 0 60.54 -489.64 0c-27.47,0 -53.62,-4.98 -78.39,-15.01 -24.84,-9.96 -46.56,-23.8 -65.17,-41.44 -18.61,-17.5 -33.35,-38.12 -44.21,-61.65 -10.86,-23.52 -16.19,-48.98 -16.19,-76.45 0,-26.98 5.47,-52.37 16.47,-76.11 11.07,-23.73 25.88,-44.28 44.49,-61.72 18.61,-17.37 40.27,-31.13 64.9,-41.1 24.63,-10.03 50.51,-15.01 77.49,-15.01z"/>
   <polygon class="fil2" points="8353.27,18042.2 12971.8,18042.2 12971.8,17635.1 8353.27,17635.1 "/>
   <polygon class="fil2" points="12966.26,16543.39 8353.27,16543.39 8353.27,16943.08 12966.26,16943.08 "/>
   <polygon class="fil2" points="8353.27,15851.38 12966.26,15851.38 12966.26,15447.95 8353.27,15444.28 "/>
   <path class="fil2" d="M13911.36 16026.77c22.35,-20.83 47.32,-36.18 76.31,-47.05 28.16,-10.52 60.61,-15.01 96.65,-13.35l3940.29 0.14 0 -633.62 -3938.7 0c-118.03,0 -232.19,22.14 -339.36,65.87 -106.34,43.45 -201.47,103.92 -282.77,179.68 -81.64,76.11 -147.99,166.81 -197.25,269.48 -50.37,105.3 -75.97,219.74 -75.97,340.19l0 14.81c0,123.43 26.43,239.6 78.46,345.11 50.58,102.54 118.31,193.03 201.34,269.07 82.68,75.69 177.88,135.4 282.98,177.4 105.79,42.34 215.45,63.72 325.87,63.72l3056.77 0c67.18,0 120.8,21.17 168.82,66.56 46.15,43.73 67.67,94.16 67.67,158.78 0,31 -5.88,59.36 -17.99,86.83 -12.52,28.3 -28.92,52.03 -50.3,72.58 -21.93,21.03 -47.81,37.64 -79.22,50.71 -30.51,12.73 -61.99,18.89 -96.38,18.89l-3941.67 0 0 633.69 3938.63 0c123.29,0 240.84,-22.9 349.26,-68.01 107.86,-44.83 203.9,-107.59 285.4,-186.32 81.64,-78.87 146.61,-171.1 193.24,-274.12 47.19,-104.68 71.19,-218.36 71.19,-337.91 0,-120.59 -26.29,-235.86 -78.11,-342.68 -50.51,-103.99 -118.24,-195.32 -201.2,-271.42 -81.92,-75.07 -176.91,-135.75 -282.49,-180.37 -107.45,-45.25 -219.46,-68.22 -332.86,-68.22l-3044.04 0c-34.25,0 -65.52,-6.23 -95.82,-18.89 -31.27,-13.15 -57.15,-29.82 -79.08,-51.06 -21.31,-20.55 -37.71,-44.49 -50.3,-73.27 -12.11,-27.61 -17.99,-56.32 -17.99,-87.73 0,-31.34 5.88,-60.05 18.06,-87.8 12.18,-27.88 28.71,-51.34 50.58,-71.68z"/>
   <path class="fil2" d="M4093.05 15445.04c-175.04,71.61 -331.82,171.24 -465.98,296.12 -134.85,125.44 -243.75,275.57 -323.73,446.19 -80.88,172.55 -121.91,360.81 -121.91,559.59 0,201.2 41.03,390.77 121.91,563.25 79.91,170.48 188.67,321.1 323.24,447.64 134.5,126.54 291.69,226.38 467.15,296.81 175.67,70.57 361.99,106.34 553.64,106.34l3371.78 0 0 -1725.33 -1784.83 0 436.02 633.62 696.65 0 0 458.09 -2719.62 0c-109.94,0 -215.1,-20.69 -312.73,-61.51 -98.8,-41.3 -186.81,-98.04 -261.46,-168.47 -73.82,-69.74 -132.98,-153.04 -175.87,-247.55 -42.27,-93.2 -63.72,-194.42 -63.72,-301.03l0 -3.74c0,-104.2 20.89,-203.83 62.13,-295.98 41.93,-93.68 100.18,-177.19 173.18,-248.18 73.13,-71.12 160.03,-128.07 258.35,-169.16 97.69,-40.82 205.42,-61.58 320.13,-61.58l3371.78 0 0 -633.62 -3371.78 0c-191.86,0 -378.39,36.46 -554.33,108.49z"/>
  </g>
 </g>
</svg>
