<svg xmlns="http://www.w3.org/2000/svg" xml:space="preserve" width="214.153" height="133.621" style="shape-rendering:geometricPrecision;text-rendering:geometricPrecision;image-rendering:optimizeQuality;fill-rule:evenodd;clip-rule:evenodd" viewBox="0 0 2386.99 1489.36"><defs><style>.fil0{fill:#2f3d58;fill-rule:nonzero}</style></defs><g id="Слой_x0020_1"><g id="_2407037493600"><path class="fil0" d="m1897.23 628.57-882.36-39.28L1956.14 515l-58.91 113.56zm85.64-165.1-897.8-27.76 957.05-86.53-59.26 114.29z"/><path class="fil0" d="M2386.99 80.25C1565.26 83.43 779.72 197.86 536.41 553.71c-224.23 327.76 685.96 350.33 1077.23 348.1l63.73-124.65-709.32-44.49 915.32-49.37-175.16 335.88C-1131.15 1470.29-99.77-402.62 2387 80.26z"/><path class="fil0" d="M313.49 1361.42h-48.11l-32.62 69.62c-1.88 4.01-4.27 9.11-10.16 13.12-5.89 4.01-10.26 4.01-14.64 4.01h-62.33c-20.41 0-35.71-5.46-36.38-26.61-.25-8.02 1.75-25.52 19.17-62.7 17.25-36.81 31.3-53.58 39.44-61.6 18.21-17.86 41.77-27.7 69.48-27.7H350.7l17.93-38.28H241.78c-24.42 0-48.49 5.47-68.95 15.68-48.99 24.42-75.03 71.44-94.67 113.36-16.74 35.72-35.02 80.19-16.17 106.07 7.06 9.84 21.59 20.05 50.03 20.05h108.62c7.29 0 19.25-2.19 28.38-7.65 6.62-4.01 15.11-12.03 21.26-25.15l43.21-92.22zm220.1 125.03 17.93-38.28H415.19c-7.65 0-13.32-.36-14.87-3.28-1.33-1.82-.91-5.83.97-9.84l28.01-59.78h151.27L598.5 1337H447.23l24.08-51.4c1.71-3.64 4.1-8.75 9.82-12.39 5.19-3.28 10.46-3.64 14.83-3.64h137.79l17.94-38.28H488.02c-9.84 0-22.58.73-35.23 9.85-8.37 6.2-16.44 16.4-21.22 26.61l-84.71 180.8c-4.61 9.85-9.35 21.51-4.53 29.89 4.63 8.02 14.47 8.02 25.4 8.02h165.86zm434.32-255.16h-46.66l-88.13 188.09c-.85 1.82-2.9 6.2-6.91 6.2-3.28 0-2.3-3.64-2.93-6.2l-28.16-170.96c-1.8-10.94-8.47-20.05-31.06-20.05-24.06 0-44.98 12.76-55.23 34.63l-104.7 223.45h46.66l87.79-187.36c2.39-5.1 6.7-7.29 8.52-7.29.72 0 1.85.73 2.92 6.19l27.94 169.87c2.93 17.86 15.8 21.51 31.11 21.51 20.78 0 42.69-10.2 54.82-36.09l104.01-221.99zm169.33 255.16 17.93-38.28h-86.39c-30.26 0-51.53-4.37-55.26-24.42-1.34-8.02-.93-23.7 17.01-61.97 17.77-37.91 33.38-57.23 46.33-68.53 24.83-21.87 49.74-23.69 78.17-23.69h79.83l17.93-38.28h-102.43c-18.22 0-58.98 2.19-98.5 32.08-33.29 25.15-54.16 62.69-71.24 99.15-13.16 28.07-29.61 67.07-18.19 94.05 11.22 26.61 42.86 29.89 67.28 29.89h107.53zm315.4-258.08c-30.98 0-73.27 0-114.34 26.97-40 26.25-61.81 68.9-78.03 103.52-13.49 28.8-35.19 75.09-18.98 103.52 15.43 26.97 58.81 26.97 89.06 26.97 29.53 0 74 0 114.34-26.97 38.2-25.52 61.95-69.99 77.67-103.52 15.71-33.53 34-78 19.34-103.52-15.43-26.97-58.81-26.97-89.06-26.97zm-142.8 130.49c18.27-39 33.5-59.05 49.15-71.44 23.65-18.59 48.74-20.78 75.35-20.78 25.88 0 50.01 2.19 56.24 20.78 3.41 9.84 2.86 27.34-17.8 71.44-19.3 41.19-35.64 60.51-48.98 71.08-24.36 19.32-49.64 21.14-75.88 21.14-26.61 0-49.81-1.82-55.71-21.14-3.43-10.57-1.84-29.53 17.63-71.08z"/></g></g></svg>